<svg xmlns="http://www.w3.org/2000/svg" xmlns:xlink="http://www.w3.org/1999/xlink" width="370" zoomAndPan="magnify" viewBox="0 0 277.5 149.999998" height="200" preserveAspectRatio="xMidYMid meet" version="1.0"><defs><g/><clipPath id="1f41dca5d0"><path d="M 2.195312 1 L 274.707031 1 L 274.707031 149 L 2.195312 149 Z M 2.195312 1 " clip-rule="nonzero"/></clipPath><clipPath id="e66bf94283"><path d="M 1.449219 16.605469 L 1.449219 133.394531 C 1.449219 142.492188 8.820312 149.863281 17.917969 149.863281 L 259.082031 149.863281 C 268.179688 149.863281 275.554688 142.492188 275.554688 133.394531 L 275.554688 16.605469 C 275.554688 7.507812 268.179688 0.136719 259.082031 0.136719 L 17.917969 0.136719 C 8.820312 0.136719 1.449219 7.507812 1.449219 16.605469 Z M 1.449219 16.605469 " clip-rule="nonzero"/></clipPath><clipPath id="7c6130c2d2"><path d="M 18.816406 1.035156 L 258.183594 1.035156 C 267.28125 1.035156 274.65625 8.40625 274.65625 17.503906 L 274.65625 132.496094 C 274.65625 141.59375 267.28125 148.964844 258.183594 148.964844 L 18.816406 148.964844 C 9.71875 148.964844 2.347656 141.59375 2.347656 132.496094 L 2.347656 17.503906 C 2.347656 8.40625 9.71875 1.035156 18.816406 1.035156 Z M 18.816406 1.035156 " clip-rule="nonzero"/></clipPath><clipPath id="ad40e31da7"><path d="M 1.449219 0.136719 L 275.453125 0.136719 L 275.453125 149.863281 L 1.449219 149.863281 Z M 1.449219 0.136719 " clip-rule="nonzero"/></clipPath><clipPath id="7fbc3ce55b"><path d="M 1.449219 16.605469 L 1.449219 133.394531 C 1.449219 142.492188 8.820312 149.863281 17.917969 149.863281 L 259.082031 149.863281 C 268.179688 149.863281 275.554688 142.492188 275.554688 133.394531 L 275.554688 16.605469 C 275.554688 7.507812 268.179688 0.136719 259.082031 0.136719 L 17.917969 0.136719 C 8.820312 0.136719 1.449219 7.507812 1.449219 16.605469 Z M 1.449219 16.605469 " clip-rule="nonzero"/></clipPath><clipPath id="af6588ab5c"><path d="M 1.449219 16.605469 L 1.449219 133.394531 C 1.449219 142.492188 8.820312 149.863281 17.917969 149.863281 L 259.078125 149.863281 C 268.171875 149.863281 275.546875 142.492188 275.546875 133.394531 L 275.546875 16.605469 C 275.546875 7.507812 268.171875 0.136719 259.078125 0.136719 L 17.917969 0.136719 C 8.820312 0.136719 1.449219 7.507812 1.449219 16.605469 Z M 1.449219 16.605469 " clip-rule="nonzero"/></clipPath><clipPath id="5e395ee92c"><rect x="0" width="213" y="0" height="138"/></clipPath></defs><g clip-path="url(#1f41dca5d0)"><g clip-path="url(#e66bf94283)"><g clip-path="url(#7c6130c2d2)"><path fill="#1b1b1b" d="M 2.523438 1.132812 L 274.472656 1.132812 L 274.472656 148.867188 L 2.523438 148.867188 Z M 2.523438 1.132812 " fill-opacity="1" fill-rule="nonzero"/><path fill="#1b1b1b" d="M 274.472656 149.863281 L 2.523438 149.863281 C 1.964844 149.863281 1.523438 149.425781 1.523438 148.867188 L 1.523438 1.132812 C 1.523438 0.574219 1.964844 0.136719 2.523438 0.136719 L 274.472656 0.136719 C 275.03125 0.136719 275.472656 0.574219 275.472656 1.132812 L 275.472656 148.867188 C 275.472656 149.425781 275.03125 149.863281 274.472656 149.863281 Z M 3.519531 147.867188 L 273.472656 147.867188 L 273.472656 2.132812 L 3.519531 2.132812 Z M 3.519531 147.867188 " fill-opacity="1" fill-rule="nonzero"/></g></g></g><g clip-path="url(#ad40e31da7)"><g clip-path="url(#7fbc3ce55b)"><g clip-path="url(#af6588ab5c)"><path stroke-linecap="butt" transform="matrix(0.748651, 0, 0, 0.748651, 1.44762, 0.134893)" fill="none" stroke-linejoin="miter" d="M 0.00213489 22.000338 L 0.00213489 177.999669 C 0.00213489 190.151734 9.847969 199.997567 22.000034 199.997567 L 344.126286 199.997567 C 356.273133 199.997567 366.124185 190.151734 366.124185 177.999669 L 366.124185 22.000338 C 366.124185 9.848273 356.273133 0.00243894 344.126286 0.00243894 L 22.000034 0.00243894 C 9.847969 0.00243894 0.00213489 9.848273 0.00213489 22.000338 Z M 0.00213489 22.000338 " stroke="#1b1b1b" stroke-width="14" stroke-opacity="1" stroke-miterlimit="4"/></g></g></g><g transform="matrix(1, 0, 0, 1, 32, 2)"><g clip-path="url(#5e395ee92c)"><g fill="#e4e2dd" fill-opacity="1"><g transform="translate(0.442461, 71.813473)"><g><path d="M 45.28125 -35.40625 C 50.039062 -35.445312 53.90625 -34.03125 56.875 -31.15625 C 60.082031 -28.132812 61.6875 -23.898438 61.6875 -18.453125 L 61.6875 0 L 52.765625 0 L 52.765625 -17.84375 C 52.765625 -18.53125 52.648438 -19.304688 52.421875 -20.171875 C 52.097656 -21.222656 51.660156 -22.160156 51.109375 -22.984375 C 49.648438 -25.316406 47.503906 -26.484375 44.671875 -26.484375 C 41.648438 -26.484375 39.453125 -25.316406 38.078125 -22.984375 C 37.578125 -22.117188 37.210938 -21.132812 36.984375 -20.03125 C 36.796875 -19.257812 36.703125 -18.484375 36.703125 -17.703125 L 36.703125 0 L 27.71875 0 L 27.71875 -17.84375 C 27.71875 -18.53125 27.601562 -19.304688 27.375 -20.171875 C 27.101562 -21.222656 26.691406 -22.160156 26.140625 -22.984375 C 24.628906 -25.316406 22.476562 -26.484375 19.6875 -26.484375 C 16.625 -26.484375 14.40625 -25.316406 13.03125 -22.984375 C 12.53125 -22.117188 12.164062 -21.132812 11.9375 -20.03125 C 11.75 -19.257812 11.65625 -18.484375 11.65625 -17.703125 L 11.65625 0 L 2.0625 0 L 2.0625 -35.46875 L 11.65625 -35.46875 L 11.65625 -31.765625 C 13.90625 -34.191406 16.789062 -35.40625 20.3125 -35.40625 C 25.476562 -35.5 29.660156 -33.507812 32.859375 -29.4375 L 35.75 -32.109375 C 38.445312 -34.304688 41.625 -35.40625 45.28125 -35.40625 Z M 45.28125 -35.40625 "/></g></g></g><g fill="#e4e2dd" fill-opacity="1"><g transform="translate(66.569462, 71.813473)"><g><path d="M 11.59375 -47.828125 L 11.59375 -39.71875 L 2.0625 -39.71875 L 2.0625 -47.828125 Z M 11.65625 -35.265625 L 11.65625 0 L 2.0625 0 L 2.0625 -35.265625 Z M 11.65625 -35.265625 "/></g></g></g><g fill="#e4e2dd" fill-opacity="1"><g transform="translate(82.689917, 71.813473)"><g><path d="M 19.625 -35.203125 C 24.65625 -35.609375 28.816406 -34.300781 32.109375 -31.28125 C 35.628906 -28.039062 37.390625 -23.488281 37.390625 -17.625 L 37.390625 0 L 28.46875 0 L 28.46875 -17.421875 L 28.40625 -17.421875 L 28.40625 -17.5625 C 28.40625 -19.988281 27.554688 -22.046875 25.859375 -23.734375 C 24.171875 -25.429688 22.113281 -26.28125 19.6875 -26.28125 C 17.21875 -26.1875 15.160156 -25.316406 13.515625 -23.671875 C 11.773438 -21.929688 10.953125 -19.875 11.046875 -17.5 L 11.046875 -17.421875 L 10.984375 -17.421875 L 10.984375 0 L 1.375 0 L 1.375 -35.46875 L 10.984375 -35.46875 L 10.984375 -30.875 C 13.128906 -33.4375 16.007812 -34.878906 19.625 -35.203125 Z M 19.625 -35.203125 "/></g></g></g><g fill="#e4e2dd" fill-opacity="1"><g transform="translate(121.035137, 71.813473)"><g><path d="M 27.515625 -35.328125 L 27.515625 -25.734375 L 19.625 -25.734375 L 19.625 0 L 10.015625 0 L 10.015625 -25.734375 L 2.0625 -25.734375 L 2.0625 -35.328125 L 10.015625 -35.328125 L 10.015625 -47.6875 L 19.625 -47.6875 L 19.625 -35.328125 Z M 27.515625 -35.328125 "/></g></g></g><g fill="#e4e2dd" fill-opacity="1"><g transform="translate(0.442461, 118.088058)"><g><path d="M 23.125 -35.328125 C 28.019531 -35.285156 32.179688 -33.523438 35.609375 -30.046875 C 39.035156 -26.578125 40.726562 -22.414062 40.6875 -17.5625 C 40.632812 -12.664062 38.875 -8.503906 35.40625 -5.078125 C 31.925781 -1.648438 27.765625 0.0390625 22.921875 0 C 18.753906 0 15.023438 -1.347656 11.734375 -4.046875 L 11.734375 0 L 2.125 0 L 2.0625 -47.890625 L 11.65625 -47.890625 L 11.65625 -31.15625 C 14.957031 -33.9375 18.78125 -35.328125 23.125 -35.328125 Z M 29.15625 -11.453125 C 30.800781 -13.097656 31.671875 -15.15625 31.765625 -17.625 C 31.765625 -19.957031 30.921875 -22.019531 29.234375 -23.8125 C 27.535156 -25.5 25.472656 -26.34375 23.046875 -26.34375 C 20.671875 -26.34375 18.613281 -25.519531 16.875 -23.875 C 15.1875 -22.1875 14.34375 -20.128906 14.34375 -17.703125 C 14.25 -15.328125 15.070312 -13.269531 16.8125 -11.53125 C 18.457031 -9.882812 20.515625 -9.015625 22.984375 -8.921875 C 25.410156 -8.921875 27.46875 -9.765625 29.15625 -11.453125 Z M 29.15625 -11.453125 "/></g></g></g><g fill="#e4e2dd" fill-opacity="1"><g transform="translate(44.618715, 118.088058)"><g><path d="M 18.3125 -35.328125 C 23.207031 -35.378906 27.375 -33.6875 30.8125 -30.25 C 34.28125 -26.78125 36.015625 -22.617188 36.015625 -17.765625 C 36.066406 -12.867188 34.375 -8.707031 30.9375 -5.28125 C 27.507812 -1.800781 23.375 -0.0390625 18.53125 0 C 13.632812 0.0390625 9.445312 -1.648438 5.96875 -5.078125 C 2.488281 -8.503906 0.75 -12.664062 0.75 -17.5625 C 0.707031 -22.457031 2.398438 -26.617188 5.828125 -30.046875 C 9.265625 -33.523438 13.425781 -35.285156 18.3125 -35.328125 Z M 24.5625 -11.53125 C 26.25 -13.21875 27.09375 -15.273438 27.09375 -17.703125 C 27.09375 -20.078125 26.226562 -22.132812 24.5 -23.875 C 22.757812 -25.519531 20.695312 -26.34375 18.3125 -26.34375 C 15.9375 -26.34375 13.90625 -25.5 12.21875 -23.8125 C 10.519531 -22.019531 9.671875 -19.957031 9.671875 -17.625 C 9.671875 -15.25 10.539062 -13.191406 12.28125 -11.453125 C 13.96875 -9.765625 16.023438 -8.921875 18.453125 -8.921875 C 20.921875 -9.015625 22.957031 -9.882812 24.5625 -11.53125 Z M 24.5625 -11.53125 "/></g></g></g><g fill="#e4e2dd" fill-opacity="1"><g transform="translate(83.79604, 118.088058)"><g><path d="M 27.4375 -35.46875 L 37.046875 -35.46875 L 37.046875 0 L 27.4375 0 L 27.4375 -3.984375 C 25.476562 -1.421875 22.507812 -0.140625 18.53125 -0.140625 C 13.675781 -0.0859375 9.507812 -1.78125 6.03125 -5.21875 C 2.5625 -8.644531 0.800781 -12.804688 0.75 -17.703125 C 0.707031 -22.546875 2.398438 -26.707031 5.828125 -30.1875 C 9.265625 -33.664062 13.425781 -35.425781 18.3125 -35.46875 C 22.34375 -35.46875 25.382812 -34.164062 27.4375 -31.5625 Z M 24.5625 -11.65625 C 26.25 -13.351562 27.09375 -15.414062 27.09375 -17.84375 C 27.09375 -20.3125 26.226562 -22.367188 24.5 -24.015625 C 22.757812 -25.753906 20.722656 -26.578125 18.390625 -26.484375 C 15.960938 -26.484375 13.90625 -25.632812 12.21875 -23.9375 C 10.519531 -22.25 9.671875 -20.191406 9.671875 -17.765625 C 9.671875 -15.390625 10.539062 -13.332031 12.28125 -11.59375 C 13.96875 -9.90625 16.023438 -9.0625 18.453125 -9.0625 C 20.921875 -9.144531 22.957031 -10.007812 24.5625 -11.65625 Z M 24.5625 -11.65625 "/></g></g></g><g fill="#e4e2dd" fill-opacity="1"><g transform="translate(125.297048, 118.088058)"><g><path d="M 11.65625 -30.046875 C 12.4375 -32.242188 13.742188 -33.773438 15.578125 -34.640625 C 17.359375 -35.515625 20.035156 -35.953125 23.609375 -35.953125 L 23.609375 -26.140625 C 20.128906 -26.140625 17.222656 -24.953125 14.890625 -22.578125 C 12.734375 -20.472656 11.65625 -18.160156 11.65625 -15.640625 L 11.65625 0 L 2.0625 0 L 2.0625 -35.328125 L 11.65625 -35.328125 Z M 11.65625 -30.046875 "/></g></g></g><g fill="#e4e2dd" fill-opacity="1"><g transform="translate(152.324285, 118.088058)"><g><path d="M 29.703125 0 L 29.703125 -4.046875 C 26.410156 -1.347656 22.6875 0 18.53125 0 C 13.675781 0.0390625 9.507812 -1.648438 6.03125 -5.078125 C 2.5625 -8.503906 0.800781 -12.664062 0.75 -17.5625 C 0.707031 -22.414062 2.398438 -26.578125 5.828125 -30.046875 C 9.265625 -33.523438 13.425781 -35.285156 18.3125 -35.328125 C 22.570312 -35.328125 26.347656 -33.976562 29.640625 -31.28125 L 29.640625 -47.890625 L 39.25 -47.890625 L 39.3125 0 Z M 24.625 -11.53125 C 26.320312 -13.21875 27.171875 -15.273438 27.171875 -17.703125 C 27.078125 -20.171875 26.207031 -22.226562 24.5625 -23.875 C 22.820312 -25.519531 20.765625 -26.34375 18.390625 -26.34375 C 15.960938 -26.34375 13.90625 -25.5 12.21875 -23.8125 C 10.519531 -21.9375 9.695312 -19.875 9.75 -17.625 C 9.75 -15.207031 10.59375 -13.148438 12.28125 -11.453125 C 13.96875 -9.765625 16.023438 -8.921875 18.453125 -8.921875 C 20.921875 -9.015625 22.976562 -9.882812 24.625 -11.53125 Z M 24.625 -11.53125 "/></g></g></g><g fill="#e4e2dd" fill-opacity="1"><g transform="translate(196.088977, 118.088058)"><g><path d="M 11.65625 0 L 2.0625 0 L 2.0625 -9.609375 L 11.65625 -9.609375 Z M 11.65625 0 "/></g></g></g></g></g></svg>